<svg xmlns="http://www.w3.org/2000/svg" version="1.1" xmlns:xlink="http://www.w3.org/1999/xlink" xmlns:svgjs="http://svgjs.dev/svgjs" viewBox="0 0 800 800" opacity="0.16" width="800" height="800"><g stroke-width="2.75" stroke="#66eace" fill="none"><rect width="12.105263157894736" height="12.105263157894736" x="-6.052631578947368" y="-6.052631578947368" fill="#66eace" stroke="none"></rect><rect width="12.105263157894736" height="12.105263157894736" x="66.67464114832536" y="-6.052631578947368" fill="#66eace" stroke="none"></rect><rect width="12.105263157894736" height="12.105263157894736" x="139.4019138755981" y="-6.052631578947368" fill="#66eace" stroke="none"></rect><rect width="12.105263157894736" height="12.105263157894736" x="212.12918660287082" y="-6.052631578947368" fill="#66eace" stroke="none"></rect><rect width="12.105263157894736" height="12.105263157894736" x="284.8564593301436" y="-6.052631578947368" fill="#66eace" stroke="none"></rect><rect width="12.105263157894736" height="12.105263157894736" x="357.58373205741634" y="-6.052631578947368" fill="#66eace" stroke="none"></rect><rect width="12.105263157894736" height="12.105263157894736" x="430.3110047846891" y="-6.052631578947368" fill="#66eace" stroke="none"></rect><rect width="12.105263157894736" height="12.105263157894736" x="503.03827751196184" y="-6.052631578947368" fill="#66eace" stroke="none"></rect><rect width="12.105263157894736" height="12.105263157894736" x="575.7655502392345" y="-6.052631578947368" fill="#66eace" stroke="none"></rect><rect width="12.105263157894736" height="12.105263157894736" x="648.4928229665072" y="-6.052631578947368" fill="#66eace" stroke="none"></rect><rect width="12.105263157894736" height="12.105263157894736" x="721.22009569378" y="-6.052631578947368" fill="#66eace" stroke="none"></rect><rect width="12.105263157894736" height="12.105263157894736" x="793.9473684210527" y="-6.052631578947368" fill="#66eace" stroke="none"></rect><rect width="12.105263157894736" height="12.105263157894736" x="-6.052631578947368" y="73.94736842105263" fill="#66eace" stroke="none"></rect><rect width="12.105263157894736" height="12.105263157894736" x="66.67464114832536" y="73.94736842105263" fill="#66eace" stroke="none"></rect><rect width="12.105263157894736" height="12.105263157894736" x="139.4019138755981" y="73.94736842105263" fill="#66eace" stroke="none"></rect><rect width="12.105263157894736" height="12.105263157894736" x="212.12918660287082" y="73.94736842105263" fill="#66eace" stroke="none"></rect><rect width="12.105263157894736" height="12.105263157894736" x="284.8564593301436" y="73.94736842105263" fill="#66eace" stroke="none"></rect><rect width="12.105263157894736" height="12.105263157894736" x="357.58373205741634" y="73.94736842105263" fill="#66eace" stroke="none"></rect><rect width="12.105263157894736" height="12.105263157894736" x="430.3110047846891" y="73.94736842105263"></rect><rect width="12.105263157894736" height="12.105263157894736" x="503.03827751196184" y="73.94736842105263"></rect><rect width="12.105263157894736" height="12.105263157894736" x="575.7655502392345" y="73.94736842105263" fill="#66eace" stroke="none"></rect><rect width="12.105263157894736" height="12.105263157894736" x="648.4928229665072" y="73.94736842105263" fill="#66eace" stroke="none"></rect><rect width="12.105263157894736" height="12.105263157894736" x="721.22009569378" y="73.94736842105263"></rect><rect width="12.105263157894736" height="12.105263157894736" x="793.9473684210527" y="73.94736842105263" fill="#66eace" stroke="none"></rect><rect width="12.105263157894736" height="12.105263157894736" x="-6.052631578947368" y="153.94736842105263" fill="#66eace" stroke="none"></rect><rect width="12.105263157894736" height="12.105263157894736" x="66.67464114832536" y="153.94736842105263"></rect><rect width="12.105263157894736" height="12.105263157894736" x="139.4019138755981" y="153.94736842105263"></rect><rect width="12.105263157894736" height="12.105263157894736" x="212.12918660287082" y="153.94736842105263" fill="#66eace" stroke="none"></rect><rect width="12.105263157894736" height="12.105263157894736" x="284.8564593301436" y="153.94736842105263"></rect><rect width="12.105263157894736" height="12.105263157894736" x="357.58373205741634" y="153.94736842105263"></rect><rect width="12.105263157894736" height="12.105263157894736" x="430.3110047846891" y="153.94736842105263" fill="#66eace" stroke="none"></rect><rect width="12.105263157894736" height="12.105263157894736" x="503.03827751196184" y="153.94736842105263" fill="#66eace" stroke="none"></rect><rect width="12.105263157894736" height="12.105263157894736" x="575.7655502392345" y="153.94736842105263"></rect><rect width="12.105263157894736" height="12.105263157894736" x="648.4928229665072" y="153.94736842105263" fill="#66eace" stroke="none"></rect><rect width="12.105263157894736" height="12.105263157894736" x="721.22009569378" y="153.94736842105263" fill="#66eace" stroke="none"></rect><rect width="12.105263157894736" height="12.105263157894736" x="793.9473684210527" y="153.94736842105263" fill="#66eace" stroke="none"></rect><rect width="12.105263157894736" height="12.105263157894736" x="-6.052631578947368" y="233.94736842105263" fill="#66eace" stroke="none"></rect><rect width="12.105263157894736" height="12.105263157894736" x="66.67464114832536" y="233.94736842105263" fill="#66eace" stroke="none"></rect><rect width="12.105263157894736" height="12.105263157894736" x="139.4019138755981" y="233.94736842105263" fill="#66eace" stroke="none"></rect><rect width="12.105263157894736" height="12.105263157894736" x="212.12918660287082" y="233.94736842105263" fill="#66eace" stroke="none"></rect><rect width="12.105263157894736" height="12.105263157894736" x="284.8564593301436" y="233.94736842105263" fill="#66eace" stroke="none"></rect><rect width="12.105263157894736" height="12.105263157894736" x="357.58373205741634" y="233.94736842105263"></rect><rect width="12.105263157894736" height="12.105263157894736" x="430.3110047846891" y="233.94736842105263" fill="#66eace" stroke="none"></rect><rect width="12.105263157894736" height="12.105263157894736" x="503.03827751196184" y="233.94736842105263" fill="#66eace" stroke="none"></rect><rect width="12.105263157894736" height="12.105263157894736" x="575.7655502392345" y="233.94736842105263" fill="#66eace" stroke="none"></rect><rect width="12.105263157894736" height="12.105263157894736" x="648.4928229665072" y="233.94736842105263"></rect><rect width="12.105263157894736" height="12.105263157894736" x="721.22009569378" y="233.94736842105263" fill="#66eace" stroke="none"></rect><rect width="12.105263157894736" height="12.105263157894736" x="793.9473684210527" y="233.94736842105263" fill="#66eace" stroke="none"></rect><rect width="12.105263157894736" height="12.105263157894736" x="-6.052631578947368" y="313.94736842105266" fill="#66eace" stroke="none"></rect><rect width="12.105263157894736" height="12.105263157894736" x="66.67464114832536" y="313.94736842105266" fill="#66eace" stroke="none"></rect><rect width="12.105263157894736" height="12.105263157894736" x="139.4019138755981" y="313.94736842105266"></rect><rect width="12.105263157894736" height="12.105263157894736" x="212.12918660287082" y="313.94736842105266" fill="#66eace" stroke="none"></rect><rect width="12.105263157894736" height="12.105263157894736" x="284.8564593301436" y="313.94736842105266" fill="#66eace" stroke="none"></rect><rect width="12.105263157894736" height="12.105263157894736" x="357.58373205741634" y="313.94736842105266" fill="#66eace" stroke="none"></rect><rect width="12.105263157894736" height="12.105263157894736" x="430.3110047846891" y="313.94736842105266" fill="#66eace" stroke="none"></rect><rect width="12.105263157894736" height="12.105263157894736" x="503.03827751196184" y="313.94736842105266"></rect><rect width="12.105263157894736" height="12.105263157894736" x="575.7655502392345" y="313.94736842105266" fill="#66eace" stroke="none"></rect><rect width="12.105263157894736" height="12.105263157894736" x="648.4928229665072" y="313.94736842105266" fill="#66eace" stroke="none"></rect><rect width="12.105263157894736" height="12.105263157894736" x="721.22009569378" y="313.94736842105266"></rect><rect width="12.105263157894736" height="12.105263157894736" x="793.9473684210527" y="313.94736842105266" fill="#66eace" stroke="none"></rect><rect width="12.105263157894736" height="12.105263157894736" x="-6.052631578947368" y="393.94736842105266" fill="#66eace" stroke="none"></rect><rect width="12.105263157894736" height="12.105263157894736" x="66.67464114832536" y="393.94736842105266" fill="#66eace" stroke="none"></rect><rect width="12.105263157894736" height="12.105263157894736" x="139.4019138755981" y="393.94736842105266" fill="#66eace" stroke="none"></rect><rect width="12.105263157894736" height="12.105263157894736" x="212.12918660287082" y="393.94736842105266"></rect><rect width="12.105263157894736" height="12.105263157894736" x="284.8564593301436" y="393.94736842105266" fill="#66eace" stroke="none"></rect><rect width="12.105263157894736" height="12.105263157894736" x="357.58373205741634" y="393.94736842105266" fill="#66eace" stroke="none"></rect><rect width="12.105263157894736" height="12.105263157894736" x="430.3110047846891" y="393.94736842105266"></rect><rect width="12.105263157894736" height="12.105263157894736" x="503.03827751196184" y="393.94736842105266"></rect><rect width="12.105263157894736" height="12.105263157894736" x="575.7655502392345" y="393.94736842105266" fill="#66eace" stroke="none"></rect><rect width="12.105263157894736" height="12.105263157894736" x="648.4928229665072" y="393.94736842105266" fill="#66eace" stroke="none"></rect><rect width="12.105263157894736" height="12.105263157894736" x="721.22009569378" y="393.94736842105266" fill="#66eace" stroke="none"></rect><rect width="12.105263157894736" height="12.105263157894736" x="793.9473684210527" y="393.94736842105266" fill="#66eace" stroke="none"></rect><rect width="12.105263157894736" height="12.105263157894736" x="-6.052631578947368" y="473.94736842105266" fill="#66eace" stroke="none"></rect><rect width="12.105263157894736" height="12.105263157894736" x="66.67464114832536" y="473.94736842105266" fill="#66eace" stroke="none"></rect><rect width="12.105263157894736" height="12.105263157894736" x="139.4019138755981" y="473.94736842105266" fill="#66eace" stroke="none"></rect><rect width="12.105263157894736" height="12.105263157894736" x="212.12918660287082" y="473.94736842105266"></rect><rect width="12.105263157894736" height="12.105263157894736" x="284.8564593301436" y="473.94736842105266" fill="#66eace" stroke="none"></rect><rect width="12.105263157894736" height="12.105263157894736" x="357.58373205741634" y="473.94736842105266" fill="#66eace" stroke="none"></rect><rect width="12.105263157894736" height="12.105263157894736" x="430.3110047846891" y="473.94736842105266"></rect><rect width="12.105263157894736" height="12.105263157894736" x="503.03827751196184" y="473.94736842105266" fill="#66eace" stroke="none"></rect><rect width="12.105263157894736" height="12.105263157894736" x="575.7655502392345" y="473.94736842105266"></rect><rect width="12.105263157894736" height="12.105263157894736" x="648.4928229665072" y="473.94736842105266" fill="#66eace" stroke="none"></rect><rect width="12.105263157894736" height="12.105263157894736" x="721.22009569378" y="473.94736842105266" fill="#66eace" stroke="none"></rect><rect width="12.105263157894736" height="12.105263157894736" x="793.9473684210527" y="473.94736842105266" fill="#66eace" stroke="none"></rect><rect width="12.105263157894736" height="12.105263157894736" x="-6.052631578947368" y="553.9473684210526" fill="#66eace" stroke="none"></rect><rect width="12.105263157894736" height="12.105263157894736" x="66.67464114832536" y="553.9473684210526" fill="#66eace" stroke="none"></rect><rect width="12.105263157894736" height="12.105263157894736" x="139.4019138755981" y="553.9473684210526" fill="#66eace" stroke="none"></rect><rect width="12.105263157894736" height="12.105263157894736" x="212.12918660287082" y="553.9473684210526" fill="#66eace" stroke="none"></rect><rect width="12.105263157894736" height="12.105263157894736" x="284.8564593301436" y="553.9473684210526" fill="#66eace" stroke="none"></rect><rect width="12.105263157894736" height="12.105263157894736" x="357.58373205741634" y="553.9473684210526"></rect><rect width="12.105263157894736" height="12.105263157894736" x="430.3110047846891" y="553.9473684210526" fill="#66eace" stroke="none"></rect><rect width="12.105263157894736" height="12.105263157894736" x="503.03827751196184" y="553.9473684210526" fill="#66eace" stroke="none"></rect><rect width="12.105263157894736" height="12.105263157894736" x="575.7655502392345" y="553.9473684210526"></rect><rect width="12.105263157894736" height="12.105263157894736" x="648.4928229665072" y="553.9473684210526" fill="#66eace" stroke="none"></rect><rect width="12.105263157894736" height="12.105263157894736" x="721.22009569378" y="553.9473684210526"></rect><rect width="12.105263157894736" height="12.105263157894736" x="793.9473684210527" y="553.9473684210526" fill="#66eace" stroke="none"></rect><rect width="12.105263157894736" height="12.105263157894736" x="-6.052631578947368" y="633.9473684210526" fill="#66eace" stroke="none"></rect><rect width="12.105263157894736" height="12.105263157894736" x="66.67464114832536" y="633.9473684210526" fill="#66eace" stroke="none"></rect><rect width="12.105263157894736" height="12.105263157894736" x="139.4019138755981" y="633.9473684210526" fill="#66eace" stroke="none"></rect><rect width="12.105263157894736" height="12.105263157894736" x="212.12918660287082" y="633.9473684210526"></rect><rect width="12.105263157894736" height="12.105263157894736" x="284.8564593301436" y="633.9473684210526"></rect><rect width="12.105263157894736" height="12.105263157894736" x="357.58373205741634" y="633.9473684210526"></rect><rect width="12.105263157894736" height="12.105263157894736" x="430.3110047846891" y="633.9473684210526" fill="#66eace" stroke="none"></rect><rect width="12.105263157894736" height="12.105263157894736" x="503.03827751196184" y="633.9473684210526" fill="#66eace" stroke="none"></rect><rect width="12.105263157894736" height="12.105263157894736" x="575.7655502392345" y="633.9473684210526"></rect><rect width="12.105263157894736" height="12.105263157894736" x="648.4928229665072" y="633.9473684210526" fill="#66eace" stroke="none"></rect><rect width="12.105263157894736" height="12.105263157894736" x="721.22009569378" y="633.9473684210526" fill="#66eace" stroke="none"></rect><rect width="12.105263157894736" height="12.105263157894736" x="793.9473684210527" y="633.9473684210526" fill="#66eace" stroke="none"></rect><rect width="12.105263157894736" height="12.105263157894736" x="-6.052631578947368" y="713.9473684210526" fill="#66eace" stroke="none"></rect><rect width="12.105263157894736" height="12.105263157894736" x="66.67464114832536" y="713.9473684210526" fill="#66eace" stroke="none"></rect><rect width="12.105263157894736" height="12.105263157894736" x="139.4019138755981" y="713.9473684210526" fill="#66eace" stroke="none"></rect><rect width="12.105263157894736" height="12.105263157894736" x="212.12918660287082" y="713.9473684210526" fill="#66eace" stroke="none"></rect><rect width="12.105263157894736" height="12.105263157894736" x="284.8564593301436" y="713.9473684210526" fill="#66eace" stroke="none"></rect><rect width="12.105263157894736" height="12.105263157894736" x="357.58373205741634" y="713.9473684210526" fill="#66eace" stroke="none"></rect><rect width="12.105263157894736" height="12.105263157894736" x="430.3110047846891" y="713.9473684210526" fill="#66eace" stroke="none"></rect><rect width="12.105263157894736" height="12.105263157894736" x="503.03827751196184" y="713.9473684210526" fill="#66eace" stroke="none"></rect><rect width="12.105263157894736" height="12.105263157894736" x="575.7655502392345" y="713.9473684210526"></rect><rect width="12.105263157894736" height="12.105263157894736" x="648.4928229665072" y="713.9473684210526" fill="#66eace" stroke="none"></rect><rect width="12.105263157894736" height="12.105263157894736" x="721.22009569378" y="713.9473684210526" fill="#66eace" stroke="none"></rect><rect width="12.105263157894736" height="12.105263157894736" x="793.9473684210527" y="713.9473684210526" fill="#66eace" stroke="none"></rect><rect width="12.105263157894736" height="12.105263157894736" x="-6.052631578947368" y="793.9473684210526" fill="#66eace" stroke="none"></rect><rect width="12.105263157894736" height="12.105263157894736" x="66.67464114832536" y="793.9473684210526" fill="#66eace" stroke="none"></rect><rect width="12.105263157894736" height="12.105263157894736" x="139.4019138755981" y="793.9473684210526" fill="#66eace" stroke="none"></rect><rect width="12.105263157894736" height="12.105263157894736" x="212.12918660287082" y="793.9473684210526" fill="#66eace" stroke="none"></rect><rect width="12.105263157894736" height="12.105263157894736" x="284.8564593301436" y="793.9473684210526" fill="#66eace" stroke="none"></rect><rect width="12.105263157894736" height="12.105263157894736" x="357.58373205741634" y="793.9473684210526" fill="#66eace" stroke="none"></rect><rect width="12.105263157894736" height="12.105263157894736" x="430.3110047846891" y="793.9473684210526" fill="#66eace" stroke="none"></rect><rect width="12.105263157894736" height="12.105263157894736" x="503.03827751196184" y="793.9473684210526" fill="#66eace" stroke="none"></rect><rect width="12.105263157894736" height="12.105263157894736" x="575.7655502392345" y="793.9473684210526" fill="#66eace" stroke="none"></rect><rect width="12.105263157894736" height="12.105263157894736" x="648.4928229665072" y="793.9473684210526" fill="#66eace" stroke="none"></rect><rect width="12.105263157894736" height="12.105263157894736" x="721.22009569378" y="793.9473684210526" fill="#66eace" stroke="none"></rect><rect width="12.105263157894736" height="12.105263157894736" x="793.9473684210527" y="793.9473684210526" fill="#66eace" stroke="none"></rect></g></svg>